<svg width="25" height="16" viewBox="0 0 25 16" fill="none" xmlns="http://www.w3.org/2000/svg">
<path d="M19.7638 3.99877C14.0107 3.99877 14.0107 9.98254 14.0107 10.0113C14.0107 10.0113 13.6253 15.9951 19.7638 15.9951C19.7638 15.9951 24.3884 16.2828 24.8563 12.4566C24.8839 12.1114 24.6361 11.8237 24.3333 11.8237H22.7368C22.5165 11.8237 22.2963 11.9675 22.2137 12.2265C22.0761 12.7155 21.5806 13.521 19.8739 13.521C19.8739 13.521 17.6442 13.6649 17.2864 11.4497C17.2313 11.1045 17.4791 10.8168 17.8094 10.8168H24.471C24.7462 10.8168 24.994 10.5867 24.994 10.2702C25.049 8.65921 24.7738 3.99877 19.7638 3.99877ZM17.5617 8.68798C17.3414 8.68798 17.2038 8.4866 17.2589 8.25646C17.4791 7.56602 18.1122 6.27145 19.7914 6.27145C21.5256 6.27145 21.9385 7.62356 22.0486 8.31399C22.0761 8.51537 21.9385 8.68798 21.7458 8.68798H17.5617ZM10.6799 7.30711C10.4872 7.24957 10.4597 6.96189 10.6524 6.87559C11.2855 6.53037 12.0562 5.7824 12.0562 4.17138C12.0562 1.38087 10.1844 0 7.81707 0H0.384754C0.164537 0 -0.00062561 0.172609 -0.00062561 0.402754V15.2471C-0.00062561 15.4773 0.164537 15.6499 0.384754 15.6499H7.78954C7.78954 15.6499 12.5517 15.7937 12.5517 11.0182C12.5517 11.047 12.7169 7.99754 10.6799 7.30711ZM3.41273 3.07819C3.41273 2.90558 3.55037 2.79051 3.68801 2.79051H7.76202C7.76202 2.79051 8.80805 2.79051 8.80805 4.43029C8.80805 6.07008 8.17492 6.30022 7.48675 6.30022H3.71553C3.55037 6.30022 3.44026 6.15638 3.44026 6.01254V3.07819H3.41273ZM7.56933 12.8881H3.71553C3.55037 12.8881 3.44026 12.7443 3.44026 12.6004V9.00443C3.44026 8.83182 3.5779 8.71675 3.71553 8.71675H7.78954C7.78954 8.71675 9.38612 8.68798 9.35859 10.8744C9.35859 12.6867 8.17492 12.8594 7.56933 12.8881ZM16.5156 0.632899V1.985C16.5156 2.15761 16.6533 2.27268 16.7909 2.27268H22.4064C22.5716 2.27268 22.6817 2.12884 22.6817 1.985V0.632899C22.6817 0.46029 22.5441 0.345218 22.4064 0.345218H16.8184C16.6533 0.31645 16.5156 0.46029 16.5156 0.632899Z" fill="#A0A0A0"/>
</svg>
