<svg width="16" height="16" viewBox="0 0 16 16" fill="none" xmlns="http://www.w3.org/2000/svg">
<path d="M11.8158 13.6641C11.7465 13.2526 11.3821 11.2468 10.4863 8.78582C12.6912 8.43299 14.602 9.03823 14.7433 9.08444C14.5947 10.0075 14.2582 10.8902 13.7546 11.6779C13.2511 12.4657 12.5912 13.1416 11.8158 13.6641ZM7.99871 14.8311C6.40962 14.8334 4.86986 14.2793 3.64654 13.2651C3.73719 13.338 3.80029 13.3842 3.80029 13.3842C3.80029 13.3842 5.10941 10.5286 9.16115 9.11732C9.17537 9.1111 9.19137 9.10844 9.20648 9.10311C10.1681 11.6005 10.5645 13.6917 10.6658 14.2889C9.82255 14.6471 8.91577 14.8315 7.9996 14.8311H7.99871ZM1.16783 7.99929C1.16783 7.92641 1.17139 7.85531 1.17317 7.78332C1.29404 7.78599 4.66948 7.86331 8.18623 6.81015C8.38172 7.19231 8.56836 7.58336 8.74078 7.97174C8.65021 7.99613 8.56036 8.0234 8.47149 8.0535C4.78502 9.24442 2.9151 12.5603 2.9151 12.5603L2.91777 12.5639C1.78882 11.3118 1.16491 9.68514 1.16694 7.99929H1.16783ZM5.08363 1.82252C6.00417 3.08457 6.85135 4.39853 7.621 5.75788C4.34153 6.62885 1.494 6.59507 1.31448 6.59152C1.53209 5.55964 1.98561 4.59215 2.63951 3.76478C3.29341 2.93743 4.12996 2.27266 5.08363 1.82252ZM6.36253 1.3666L6.36165 1.36927L6.34032 1.37282L6.36253 1.36749V1.3666ZM12.5099 2.87391C12.493 2.89968 11.5208 4.38033 8.94163 5.34639C8.18282 3.9615 7.33031 2.63003 6.39009 1.36127C7.45679 1.10057 8.57076 1.10199 9.63681 1.36541C10.7028 1.62882 11.6893 2.14639 12.5117 2.87391H12.5099ZM14.8278 7.93085C14.73 7.90952 12.4175 7.41183 10.0703 7.70689L9.9228 7.35584C9.78025 7.02126 9.62881 6.69053 9.46865 6.364C12.166 5.26196 13.2609 3.68 13.2743 3.66133C14.266 4.86448 14.8144 6.37172 14.8278 7.93085ZM15.8356 6.38977C15.7295 5.87441 15.5729 5.37073 15.3681 4.88602C14.7642 3.45717 13.7575 2.23495 12.4708 1.36838C12.0432 1.07879 11.5884 0.831452 11.1128 0.629832C10.1272 0.214149 9.06837 0 7.99871 0C6.92903 0 5.87017 0.214149 4.88456 0.629832C3.45649 1.23508 2.23459 2.2415 1.36691 3.52713C0.473672 4.84731 -0.0025225 6.40532 2.46375e-05 7.99929C-0.00264337 9.06889 0.211405 10.1279 0.629255 11.1126C0.830111 11.5889 1.07718 12.0448 1.36691 12.4723C2.23449 13.7578 3.45644 14.764 4.88456 15.3687C5.36866 15.5739 5.87214 15.7299 6.38742 15.8344C7.97301 16.1627 9.62099 16.0004 11.1119 15.3687C11.5878 15.1674 12.0429 14.9205 12.4708 14.6311C12.8956 14.344 13.292 14.0179 13.6546 13.6561C14.592 12.7206 15.2819 11.5667 15.6625 10.2983C16.043 9.02987 16.1022 7.68675 15.8347 6.38977H15.8356Z" fill="#A0A0A0"/>
</svg>
