<svg width="16" height="16" viewBox="0 0 16 16" fill="none" xmlns="http://www.w3.org/2000/svg">
<path d="M3.47288 16H0.0565033V4.57143H3.47288V16ZM15.9996 16H12.5832V9.89486C12.5832 8.304 12.0184 7.512 10.8989 7.512C10.0118 7.512 9.44925 7.95543 9.16683 8.84343C9.16683 10.2857 9.16683 16 9.16683 16H5.75046C5.75046 16 5.79601 5.71429 5.75046 4.57143H8.44711L8.65551 6.85714H8.72612C9.42648 5.71429 10.5459 4.93943 12.081 4.93943C13.2483 4.93943 14.1923 5.26514 14.9132 6.08343C15.6386 6.90286 15.9996 8.00229 15.9996 9.54629V16Z" fill="#A0A0A0"/>
<path d="M1.7645 3.42857C2.73935 3.42857 3.52963 2.66106 3.52963 1.71429C3.52963 0.767512 2.73935 0 1.7645 0C0.789649 0 -0.00062561 0.767512 -0.00062561 1.71429C-0.00062561 2.66106 0.789649 3.42857 1.7645 3.42857Z" fill="#A0A0A0"/>
</svg>
